# xmcd
#
# Track frame offsets:
# 150
# 20616
# 40536
# 54976
# 75025
# 89804
# 108193
# 123678
# 142079
# 158309
#
# Disc length: 2313 seconds
#
#
# Revision: 0
# Processed by: cddbd v1.5.2PL0 Copyright (c) Steve Scherf et al.
# Submitted via: FreeRIP 2.945 
#
DISCID=7109070a
DTITLE=Daniel Jesuíno - Daniel Jesuíno
DYEAR=2006
DGENRE=Gospel
TTITLE0=Na Contra Mão
TTITLE1=Conta Pra Mim
TTITLE2=Tire a Tristeza
TTITLE3=Pare Um Momento
TTITLE4=Israel
TTITLE5=Semente
TTITLE6=Pode Criticar
TTITLE7=Eu Agradeço
TTITLE8=Dando a Paz do Senhor
TTITLE9=Profecia
EXTD=
EXTT0=
EXTT1=
EXTT2=
EXTT3=
EXTT4=
EXTT5=
EXTT6=
EXTT7=
EXTT8=
EXTT9=
PLAYORDER=
